<?xml version="1.0" encoding="UTF-8" standalone="no"?><svg xmlns="http://www.w3.org/2000/svg" xmlns:xlink="http://www.w3.org/1999/xlink" clip-rule="evenodd" stroke-miterlimit="10" viewBox="0 0 1024 768"><desc>SVG generated by Keynote</desc><defs></defs><g transform="matrix(1.00, 0.00, -0.00, -1.00, 0.0, 768.0)"><g><clipPath id="clip0x7fe864089a00"><path d="M 0.0 768.0 L 1024.0 768.0 L 1024.0 0.0 L 0.0 0.0 Z M 0.0 768.0 "></path></clipPath><g clip-path="url(#clip0x7fe864089a00)"><image xlink:href="../../2454F38C-308E-4D93-86A7-ACF877EF01F7/assets/EC11ABC5F29D162147B74F3E30388275.jpeg" width="2048.00" height="1536.00" transform="matrix(0.50, 0.00, -0.00, -0.50, 0.0, 768.0)"></image></g></g><text xml:space="preserve" font-family="Chalkduster,Chalkduster" font-size="72.0" fill="#FEFFFE" transform="matrix(1.00, 0.00, -0.00, -1.00, 87.6, 665.3)">O</text><text xml:space="preserve" font-family="Chalkduster,Chalkduster" font-size="72.0" fill="#FEFFFE" transform="matrix(1.00, 0.00, -0.00, -1.00, 137.9, 665.3)">A</text><text xml:space="preserve" font-family="Chalkduster,Chalkduster" font-size="72.0" fill="#FEFFFE" transform="matrix(1.00, 0.00, -0.00, -1.00, 191.3, 665.3)">u</text><text xml:space="preserve" font-family="Chalkduster,Chalkduster" font-size="72.0" fill="#FEFFFE" transform="matrix(1.00, 0.00, -0.00, -1.00, 240.1, 665.3)">t</text><text xml:space="preserve" font-family="Chalkduster,Chalkduster" font-size="72.0" fill="#FEFFFE" transform="matrix(1.00, 0.00, -0.00, -1.00, 274.5, 665.3)">h</text><text xml:space="preserve" font-family="Chalkduster,Chalkduster" font-size="72.0" fill="#FEFFFE" transform="matrix(1.00, 0.00, -0.00, -1.00, 318.9, 665.3)">2</text><text xml:space="preserve" font-family="Chalkduster,Chalkduster" font-size="72.0" fill="#FEFFFE" transform="matrix(1.00, 0.00, -0.00, -1.00, 359.4, 665.3)"> </text><text xml:space="preserve" font-family="Chalkduster,Chalkduster" font-size="72.0" fill="#FEFFFE" transform="matrix(1.00, 0.00, -0.00, -1.00, 390.3, 665.3)">A</text><text xml:space="preserve" font-family="Chalkduster,Chalkduster" font-size="72.0" fill="#FEFFFE" transform="matrix(1.00, 0.00, -0.00, -1.00, 443.6, 665.3)">u</text><text xml:space="preserve" font-family="Chalkduster,Chalkduster" font-size="72.0" fill="#FEFFFE" transform="matrix(1.00, 0.00, -0.00, -1.00, 492.4, 665.3)">t</text><text xml:space="preserve" font-family="Chalkduster,Chalkduster" font-size="72.0" fill="#FEFFFE" transform="matrix(1.00, 0.00, -0.00, -1.00, 526.8, 665.3)">h</text><text xml:space="preserve" font-family="Chalkduster,Chalkduster" font-size="72.0" fill="#FEFFFE" transform="matrix(1.00, 0.00, -0.00, -1.00, 571.2, 665.3)">e</text><text xml:space="preserve" font-family="Chalkduster,Chalkduster" font-size="72.0" fill="#FEFFFE" transform="matrix(1.00, 0.00, -0.00, -1.00, 616.7, 665.3)">n</text><text xml:space="preserve" font-family="Chalkduster,Chalkduster" font-size="72.0" fill="#FEFFFE" transform="matrix(1.00, 0.00, -0.00, -1.00, 666.8, 665.3)">t</text><text xml:space="preserve" font-family="Chalkduster,Chalkduster" font-size="72.0" fill="#FEFFFE" transform="matrix(1.00, 0.00, -0.00, -1.00, 700.1, 665.3)">i</text><text xml:space="preserve" font-family="Chalkduster,Chalkduster" font-size="72.0" fill="#FEFFFE" transform="matrix(1.00, 0.00, -0.00, -1.00, 729.3, 665.3)">c</text><text xml:space="preserve" font-family="Chalkduster,Chalkduster" font-size="72.0" fill="#FEFFFE" transform="matrix(1.00, 0.00, -0.00, -1.00, 771.8, 665.3)">a</text><text xml:space="preserve" font-family="Chalkduster,Chalkduster" font-size="72.0" fill="#FEFFFE" transform="matrix(1.00, 0.00, -0.00, -1.00, 816.5, 665.3)">t</text><text xml:space="preserve" font-family="Chalkduster,Chalkduster" font-size="72.0" fill="#FEFFFE" transform="matrix(1.00, 0.00, -0.00, -1.00, 846.3, 665.3)">o</text><text xml:space="preserve" font-family="Chalkduster,Chalkduster" font-size="72.0" fill="#FEFFFE" transform="matrix(1.00, 0.00, -0.00, -1.00, 898.7, 665.3)">r</text><image xlink:href="../../2454F38C-308E-4D93-86A7-ACF877EF01F7/assets/4DEEB86E8592901A27491E22B30EA716.png" width="78.00" height="72.00" transform="matrix(0.19, 0.00, -0.00, -0.19, 104.0, 618.9)"></image><text xml:space="preserve" font-family="Chalkduster,Chalkduster" font-size="25.0" fill="#FEFFFE" transform="matrix(1.00, 0.00, -0.00, -1.00, 149.0, 606.4)">n</text><text xml:space="preserve" font-family="Chalkduster,Chalkduster" font-size="25.0" fill="#FEFFFE" transform="matrix(1.00, 0.00, -0.00, -1.00, 167.3, 606.4)">p</text><text xml:space="preserve" font-family="Chalkduster,Chalkduster" font-size="25.0" fill="#FEFFFE" transform="matrix(1.00, 0.00, -0.00, -1.00, 182.8, 606.4)">m</text><text xml:space="preserve" font-family="Chalkduster,Chalkduster" font-size="25.0" fill="#FEFFFE" transform="matrix(1.00, 0.00, -0.00, -1.00, 208.1, 606.4)"> </text><text xml:space="preserve" font-family="Chalkduster,Chalkduster" font-size="25.0" fill="#FEFFFE" transform="matrix(1.00, 0.00, -0.00, -1.00, 220.5, 606.4)">i</text><text xml:space="preserve" font-family="Chalkduster,Chalkduster" font-size="25.0" fill="#FEFFFE" transform="matrix(1.00, 0.00, -0.00, -1.00, 230.4, 606.4)">n</text><text xml:space="preserve" font-family="Chalkduster,Chalkduster" font-size="25.0" fill="#FEFFFE" transform="matrix(1.00, 0.00, -0.00, -1.00, 248.7, 606.4)">s</text><text xml:space="preserve" font-family="Chalkduster,Chalkduster" font-size="25.0" fill="#FEFFFE" transform="matrix(1.00, 0.00, -0.00, -1.00, 262.1, 606.4)">t</text><text xml:space="preserve" font-family="Chalkduster,Chalkduster" font-size="25.0" fill="#FEFFFE" transform="matrix(1.00, 0.00, -0.00, -1.00, 273.3, 606.4)">a</text><text xml:space="preserve" font-family="Chalkduster,Chalkduster" font-size="25.0" fill="#FEFFFE" transform="matrix(1.00, 0.00, -0.00, -1.00, 289.5, 606.4)">l</text><text xml:space="preserve" font-family="Chalkduster,Chalkduster" font-size="25.0" fill="#FEFFFE" transform="matrix(1.00, 0.00, -0.00, -1.00, 300.8, 606.4)">l</text><text xml:space="preserve" font-family="Chalkduster,Chalkduster" font-size="25.0" fill="#FEFFFE" transform="matrix(1.00, 0.00, -0.00, -1.00, 312.6, 606.4)"> </text><text xml:space="preserve" font-family="Chalkduster,Chalkduster" font-size="25.0" fill="#FEFFFE" transform="matrix(1.00, 0.00, -0.00, -1.00, 325.0, 606.4)">—</text><text xml:space="preserve" font-family="Chalkduster,Chalkduster" font-size="25.0" fill="#FEFFFE" transform="matrix(1.00, 0.00, -0.00, -1.00, 342.0, 606.4)">s</text><text xml:space="preserve" font-family="Chalkduster,Chalkduster" font-size="25.0" fill="#FEFFFE" transform="matrix(1.00, 0.00, -0.00, -1.00, 354.6, 606.4)">a</text><text xml:space="preserve" font-family="Chalkduster,Chalkduster" font-size="25.0" fill="#FEFFFE" transform="matrix(1.00, 0.00, -0.00, -1.00, 370.0, 606.4)">v</text><text xml:space="preserve" font-family="Chalkduster,Chalkduster" font-size="25.0" fill="#FEFFFE" transform="matrix(1.00, 0.00, -0.00, -1.00, 385.4, 606.4)">e</text><text xml:space="preserve" font-family="Chalkduster,Chalkduster" font-size="25.0" fill="#FEFFFE" transform="matrix(1.00, 0.00, -0.00, -1.00, 400.9, 606.4)">-</text><text xml:space="preserve" font-family="Chalkduster,Chalkduster" font-size="25.0" fill="#FEFFFE" transform="matrix(1.00, 0.00, -0.00, -1.00, 416.9, 606.4)">d</text><text xml:space="preserve" font-family="Chalkduster,Chalkduster" font-size="25.0" fill="#FEFFFE" transform="matrix(1.00, 0.00, -0.00, -1.00, 436.5, 606.4)">e</text><text xml:space="preserve" font-family="Chalkduster,Chalkduster" font-size="25.0" fill="#FEFFFE" transform="matrix(1.00, 0.00, -0.00, -1.00, 451.8, 606.4)">v</text><text xml:space="preserve" font-family="Chalkduster,Chalkduster" font-size="25.0" fill="#FEFFFE" transform="matrix(1.00, 0.00, -0.00, -1.00, 467.4, 606.4)"> </text><text xml:space="preserve" font-family="Chalkduster,Chalkduster" font-size="25.0" fill="#FEFFFE" transform="matrix(1.00, 0.00, -0.00, -1.00, 479.8, 606.4)">e</text><text xml:space="preserve" font-family="Chalkduster,Chalkduster" font-size="25.0" fill="#FEFFFE" transform="matrix(1.00, 0.00, -0.00, -1.00, 495.3, 606.4)">m</text><text xml:space="preserve" font-family="Chalkduster,Chalkduster" font-size="25.0" fill="#FEFFFE" transform="matrix(1.00, 0.00, -0.00, -1.00, 520.6, 606.4)">b</text><text xml:space="preserve" font-family="Chalkduster,Chalkduster" font-size="25.0" fill="#FEFFFE" transform="matrix(1.00, 0.00, -0.00, -1.00, 535.1, 606.4)">e</text><text xml:space="preserve" font-family="Chalkduster,Chalkduster" font-size="25.0" fill="#FEFFFE" transform="matrix(1.00, 0.00, -0.00, -1.00, 550.4, 606.4)">r</text><text xml:space="preserve" font-family="Chalkduster,Chalkduster" font-size="25.0" fill="#FEFFFE" transform="matrix(1.00, 0.00, -0.00, -1.00, 564.5, 606.4)">-</text><text xml:space="preserve" font-family="Chalkduster,Chalkduster" font-size="25.0" fill="#FEFFFE" transform="matrix(1.00, 0.00, -0.00, -1.00, 579.6, 606.4)">c</text><text xml:space="preserve" font-family="Chalkduster,Chalkduster" font-size="25.0" fill="#FEFFFE" transform="matrix(1.00, 0.00, -0.00, -1.00, 595.3, 606.4)">l</text><text xml:space="preserve" font-family="Chalkduster,Chalkduster" font-size="25.0" fill="#FEFFFE" transform="matrix(1.00, 0.00, -0.00, -1.00, 607.3, 606.4)">i</text><text xml:space="preserve" font-family="Chalkduster,Chalkduster" font-size="25.0" fill="#FEFFFE" transform="matrix(1.00, 0.00, -0.00, -1.00, 617.2, 606.4)">-</text><text xml:space="preserve" font-family="Chalkduster,Chalkduster" font-size="25.0" fill="#FEFFFE" transform="matrix(1.00, 0.00, -0.00, -1.00, 632.3, 606.4)">s</text><text xml:space="preserve" font-family="Chalkduster,Chalkduster" font-size="25.0" fill="#FEFFFE" transform="matrix(1.00, 0.00, -0.00, -1.00, 645.0, 606.4)">i</text><text xml:space="preserve" font-family="Chalkduster,Chalkduster" font-size="25.0" fill="#FEFFFE" transform="matrix(1.00, 0.00, -0.00, -1.00, 654.8, 606.4)">m</text><text xml:space="preserve" font-family="Chalkduster,Chalkduster" font-size="25.0" fill="#FEFFFE" transform="matrix(1.00, 0.00, -0.00, -1.00, 680.2, 606.4)">p</text><text xml:space="preserve" font-family="Chalkduster,Chalkduster" font-size="25.0" fill="#FEFFFE" transform="matrix(1.00, 0.00, -0.00, -1.00, 695.6, 606.4)">l</text><text xml:space="preserve" font-family="Chalkduster,Chalkduster" font-size="25.0" fill="#FEFFFE" transform="matrix(1.00, 0.00, -0.00, -1.00, 705.9, 606.4)">e</text><text xml:space="preserve" font-family="Chalkduster,Chalkduster" font-size="25.0" fill="#FEFFFE" transform="matrix(1.00, 0.00, -0.00, -1.00, 721.4, 606.4)">-</text><text xml:space="preserve" font-family="Chalkduster,Chalkduster" font-size="25.0" fill="#FEFFFE" transform="matrix(1.00, 0.00, -0.00, -1.00, 736.6, 606.4)">a</text><text xml:space="preserve" font-family="Chalkduster,Chalkduster" font-size="25.0" fill="#FEFFFE" transform="matrix(1.00, 0.00, -0.00, -1.00, 753.8, 606.4)">u</text><text xml:space="preserve" font-family="Chalkduster,Chalkduster" font-size="25.0" fill="#FEFFFE" transform="matrix(1.00, 0.00, -0.00, -1.00, 770.7, 606.4)">t</text><text xml:space="preserve" font-family="Chalkduster,Chalkduster" font-size="25.0" fill="#FEFFFE" transform="matrix(1.00, 0.00, -0.00, -1.00, 782.7, 606.4)">h</text><text xml:space="preserve" font-family="Chalkduster,Chalkduster" font-size="25.0" fill="#FEFFFE" transform="matrix(1.00, 0.00, -0.00, -1.00, 798.1, 606.4)">-</text><text xml:space="preserve" font-family="Chalkduster,Chalkduster" font-size="25.0" fill="#FEFFFE" transform="matrix(1.00, 0.00, -0.00, -1.00, 813.2, 606.4)">o</text><text xml:space="preserve" font-family="Chalkduster,Chalkduster" font-size="25.0" fill="#FEFFFE" transform="matrix(1.00, 0.00, -0.00, -1.00, 831.6, 606.4)">a</text><text xml:space="preserve" font-family="Chalkduster,Chalkduster" font-size="25.0" fill="#FEFFFE" transform="matrix(1.00, 0.00, -0.00, -1.00, 848.8, 606.4)">u</text><text xml:space="preserve" font-family="Chalkduster,Chalkduster" font-size="25.0" fill="#FEFFFE" transform="matrix(1.00, 0.00, -0.00, -1.00, 865.7, 606.4)">t</text><text xml:space="preserve" font-family="Chalkduster,Chalkduster" font-size="25.0" fill="#FEFFFE" transform="matrix(1.00, 0.00, -0.00, -1.00, 877.7, 606.4)">h</text><text xml:space="preserve" font-family="Chalkduster,Chalkduster" font-size="25.0" fill="#FEFFFE" transform="matrix(1.00, 0.00, -0.00, -1.00, 893.1, 606.4)">2</text><text xml:space="preserve" font-family="Chalkduster,Chalkduster" font-size="25.0" fill="#FEFFFE" transform="matrix(1.00, 0.00, -0.00, -1.00, 907.2, 606.4)"> </text><image xlink:href="../../2454F38C-308E-4D93-86A7-ACF877EF01F7/assets/4DEEB86E8592901A27491E22B30EA716.png" width="78.00" height="72.00" transform="matrix(0.19, 0.00, -0.00, -0.19, 104.0, 544.9)"></image><text xml:space="preserve" font-family="Chalkduster,Chalkduster" font-size="25.0" fill="#FEFFFE" transform="matrix(1.00, 0.00, -0.00, -1.00, 149.0, 532.4)">e</text><text xml:space="preserve" font-family="Chalkduster,Chalkduster" font-size="25.0" fill="#FEFFFE" transform="matrix(1.00, 0.00, -0.00, -1.00, 164.5, 532.4)">m</text><text xml:space="preserve" font-family="Chalkduster,Chalkduster" font-size="25.0" fill="#FEFFFE" transform="matrix(1.00, 0.00, -0.00, -1.00, 189.8, 532.4)">b</text><text xml:space="preserve" font-family="Chalkduster,Chalkduster" font-size="25.0" fill="#FEFFFE" transform="matrix(1.00, 0.00, -0.00, -1.00, 204.3, 532.4)">e</text><text xml:space="preserve" font-family="Chalkduster,Chalkduster" font-size="25.0" fill="#FEFFFE" transform="matrix(1.00, 0.00, -0.00, -1.00, 219.6, 532.4)">r</text><text xml:space="preserve" font-family="Chalkduster,Chalkduster" font-size="25.0" fill="#FEFFFE" transform="matrix(1.00, 0.00, -0.00, -1.00, 232.8, 532.4)"> </text><text xml:space="preserve" font-family="Chalkduster,Chalkduster" font-size="25.0" fill="#FEFFFE" transform="matrix(1.00, 0.00, -0.00, -1.00, 245.2, 532.4)">g</text><text xml:space="preserve" font-family="Chalkduster,Chalkduster" font-size="25.0" fill="#FEFFFE" transform="matrix(1.00, 0.00, -0.00, -1.00, 262.2, 532.4)"> </text><text xml:space="preserve" font-family="Chalkduster,Chalkduster" font-size="25.0" fill="#FEFFFE" transform="matrix(1.00, 0.00, -0.00, -1.00, 274.7, 532.4)">e</text><text xml:space="preserve" font-family="Chalkduster,Chalkduster" font-size="25.0" fill="#FEFFFE" transform="matrix(1.00, 0.00, -0.00, -1.00, 290.2, 532.4)">m</text><text xml:space="preserve" font-family="Chalkduster,Chalkduster" font-size="25.0" fill="#FEFFFE" transform="matrix(1.00, 0.00, -0.00, -1.00, 315.5, 532.4)">b</text><text xml:space="preserve" font-family="Chalkduster,Chalkduster" font-size="25.0" fill="#FEFFFE" transform="matrix(1.00, 0.00, -0.00, -1.00, 330.0, 532.4)">e</text><text xml:space="preserve" font-family="Chalkduster,Chalkduster" font-size="25.0" fill="#FEFFFE" transform="matrix(1.00, 0.00, -0.00, -1.00, 345.3, 532.4)">r</text><text xml:space="preserve" font-family="Chalkduster,Chalkduster" font-size="25.0" fill="#FEFFFE" transform="matrix(1.00, 0.00, -0.00, -1.00, 359.3, 532.4)">-</text><text xml:space="preserve" font-family="Chalkduster,Chalkduster" font-size="25.0" fill="#FEFFFE" transform="matrix(1.00, 0.00, -0.00, -1.00, 374.5, 532.4)">c</text><text xml:space="preserve" font-family="Chalkduster,Chalkduster" font-size="25.0" fill="#FEFFFE" transform="matrix(1.00, 0.00, -0.00, -1.00, 390.2, 532.4)">l</text><text xml:space="preserve" font-family="Chalkduster,Chalkduster" font-size="25.0" fill="#FEFFFE" transform="matrix(1.00, 0.00, -0.00, -1.00, 402.2, 532.4)">i</text><text xml:space="preserve" font-family="Chalkduster,Chalkduster" font-size="25.0" fill="#FEFFFE" transform="matrix(1.00, 0.00, -0.00, -1.00, 412.1, 532.4)">-</text><text xml:space="preserve" font-family="Chalkduster,Chalkduster" font-size="25.0" fill="#FEFFFE" transform="matrix(1.00, 0.00, -0.00, -1.00, 427.2, 532.4)">s</text><text xml:space="preserve" font-family="Chalkduster,Chalkduster" font-size="25.0" fill="#FEFFFE" transform="matrix(1.00, 0.00, -0.00, -1.00, 439.8, 532.4)">i</text><text xml:space="preserve" font-family="Chalkduster,Chalkduster" font-size="25.0" fill="#FEFFFE" transform="matrix(1.00, 0.00, -0.00, -1.00, 449.7, 532.4)">m</text><text xml:space="preserve" font-family="Chalkduster,Chalkduster" font-size="25.0" fill="#FEFFFE" transform="matrix(1.00, 0.00, -0.00, -1.00, 475.0, 532.4)">p</text><text xml:space="preserve" font-family="Chalkduster,Chalkduster" font-size="25.0" fill="#FEFFFE" transform="matrix(1.00, 0.00, -0.00, -1.00, 490.5, 532.4)">l</text><text xml:space="preserve" font-family="Chalkduster,Chalkduster" font-size="25.0" fill="#FEFFFE" transform="matrix(1.00, 0.00, -0.00, -1.00, 500.8, 532.4)">e</text><text xml:space="preserve" font-family="Chalkduster,Chalkduster" font-size="25.0" fill="#FEFFFE" transform="matrix(1.00, 0.00, -0.00, -1.00, 516.3, 532.4)">-</text><text xml:space="preserve" font-family="Chalkduster,Chalkduster" font-size="25.0" fill="#FEFFFE" transform="matrix(1.00, 0.00, -0.00, -1.00, 531.4, 532.4)">a</text><text xml:space="preserve" font-family="Chalkduster,Chalkduster" font-size="25.0" fill="#FEFFFE" transform="matrix(1.00, 0.00, -0.00, -1.00, 548.6, 532.4)">u</text><text xml:space="preserve" font-family="Chalkduster,Chalkduster" font-size="25.0" fill="#FEFFFE" transform="matrix(1.00, 0.00, -0.00, -1.00, 565.6, 532.4)">t</text><text xml:space="preserve" font-family="Chalkduster,Chalkduster" font-size="25.0" fill="#FEFFFE" transform="matrix(1.00, 0.00, -0.00, -1.00, 577.5, 532.4)">h</text><text xml:space="preserve" font-family="Chalkduster,Chalkduster" font-size="25.0" fill="#FEFFFE" transform="matrix(1.00, 0.00, -0.00, -1.00, 593.0, 532.4)">-</text><text xml:space="preserve" font-family="Chalkduster,Chalkduster" font-size="25.0" fill="#FEFFFE" transform="matrix(1.00, 0.00, -0.00, -1.00, 608.1, 532.4)">o</text><text xml:space="preserve" font-family="Chalkduster,Chalkduster" font-size="25.0" fill="#FEFFFE" transform="matrix(1.00, 0.00, -0.00, -1.00, 626.4, 532.4)">a</text><text xml:space="preserve" font-family="Chalkduster,Chalkduster" font-size="25.0" fill="#FEFFFE" transform="matrix(1.00, 0.00, -0.00, -1.00, 643.7, 532.4)">u</text><text xml:space="preserve" font-family="Chalkduster,Chalkduster" font-size="25.0" fill="#FEFFFE" transform="matrix(1.00, 0.00, -0.00, -1.00, 660.6, 532.4)">t</text><text xml:space="preserve" font-family="Chalkduster,Chalkduster" font-size="25.0" fill="#FEFFFE" transform="matrix(1.00, 0.00, -0.00, -1.00, 672.5, 532.4)">h</text><text xml:space="preserve" font-family="Chalkduster,Chalkduster" font-size="25.0" fill="#FEFFFE" transform="matrix(1.00, 0.00, -0.00, -1.00, 688.0, 532.4)">2</text><image xlink:href="../../4CC3213A-FAF1-459B-8420-BEFECD0C1D0E/assets/30A50E0EC7E791E9E0EA7DA560E5D523.png" width="968.00" height="702.00" transform="matrix(0.69, 0.00, -0.00, -0.69, 177.0, 502.0)"></image></g></svg>