<?xml version="1.0" encoding="UTF-8" standalone="no"?><svg xmlns="http://www.w3.org/2000/svg" xmlns:xlink="http://www.w3.org/1999/xlink" clip-rule="evenodd" stroke-miterlimit="10" viewBox="0 0 1024 768"><desc>SVG generated by Keynote</desc><defs></defs><g transform="matrix(1.00, 0.00, -0.00, -1.00, 0.0, 768.0)"><g><clipPath id="clip0x7fe863ed5020"><path d="M 0.0 768.0 L 1024.0 768.0 L 1024.0 0.0 L 0.0 0.0 Z M 0.0 768.0 "></path></clipPath><g clip-path="url(#clip0x7fe863ed5020)"><image xlink:href="../../2454F38C-308E-4D93-86A7-ACF877EF01F7/assets/EC11ABC5F29D162147B74F3E30388275.jpeg" width="2048.00" height="1536.00" transform="matrix(0.50, 0.00, -0.00, -0.50, 0.0, 768.0)"></image></g></g><text xml:space="preserve" font-family="Chalkduster,Chalkduster" font-size="72.0" fill="#FEFFFE" transform="matrix(1.00, 0.00, -0.00, -1.00, 329.7, 627.3)">l</text><text xml:space="preserve" font-family="Chalkduster,Chalkduster" font-size="72.0" fill="#FEFFFE" transform="matrix(1.00, 0.00, -0.00, -1.00, 360.7, 627.3)">o</text><text xml:space="preserve" font-family="Chalkduster,Chalkduster" font-size="72.0" fill="#FEFFFE" transform="matrix(1.00, 0.00, -0.00, -1.00, 413.6, 627.3)">g</text><text xml:space="preserve" font-family="Chalkduster,Chalkduster" font-size="72.0" fill="#FEFFFE" transform="matrix(1.00, 0.00, -0.00, -1.00, 465.2, 627.3)">i</text><text xml:space="preserve" font-family="Chalkduster,Chalkduster" font-size="72.0" fill="#FEFFFE" transform="matrix(1.00, 0.00, -0.00, -1.00, 493.7, 627.3)">n</text><text xml:space="preserve" font-family="Chalkduster,Chalkduster" font-size="72.0" fill="#FEFFFE" transform="matrix(1.00, 0.00, -0.00, -1.00, 546.5, 627.3)">.</text><text xml:space="preserve" font-family="Chalkduster,Chalkduster" font-size="72.0" fill="#FEFFFE" transform="matrix(1.00, 0.00, -0.00, -1.00, 570.9, 627.3)">h</text><text xml:space="preserve" font-family="Chalkduster,Chalkduster" font-size="72.0" fill="#FEFFFE" transform="matrix(1.00, 0.00, -0.00, -1.00, 615.4, 627.3)">b</text><text xml:space="preserve" font-family="Chalkduster,Chalkduster" font-size="72.0" fill="#FEFFFE" transform="matrix(1.00, 0.00, -0.00, -1.00, 657.9, 627.3)">s</text><image xlink:href="../../2454F38C-308E-4D93-86A7-ACF877EF01F7/assets/4DEEB86E8592901A27491E22B30EA716.png" width="78.00" height="72.00" transform="matrix(0.27, 0.00, -0.00, -0.27, 104.0, 535.0)"></image><text xml:space="preserve" font-family="Chalkduster,Chalkduster" font-size="36.0" fill="#FEFFFE" transform="matrix(1.00, 0.00, -0.00, -1.00, 149.0, 515.7)">e</text><text xml:space="preserve" font-family="Chalkduster,Chalkduster" font-size="36.0" fill="#FEFFFE" transform="matrix(1.00, 0.00, -0.00, -1.00, 171.3, 515.7)">m</text><text xml:space="preserve" font-family="Chalkduster,Chalkduster" font-size="36.0" fill="#FEFFFE" transform="matrix(1.00, 0.00, -0.00, -1.00, 207.7, 515.7)">b</text><text xml:space="preserve" font-family="Chalkduster,Chalkduster" font-size="36.0" fill="#FEFFFE" transform="matrix(1.00, 0.00, -0.00, -1.00, 228.7, 515.7)">e</text><text xml:space="preserve" font-family="Chalkduster,Chalkduster" font-size="36.0" fill="#FEFFFE" transform="matrix(1.00, 0.00, -0.00, -1.00, 250.6, 515.7)">r</text><text xml:space="preserve" font-family="Chalkduster,Chalkduster" font-size="36.0" fill="#FEFFFE" transform="matrix(1.00, 0.00, -0.00, -1.00, 269.6, 515.7)"> </text><text xml:space="preserve" font-family="Chalkduster,Chalkduster" font-size="36.0" fill="#FEFFFE" transform="matrix(1.00, 0.00, -0.00, -1.00, 287.5, 515.7)">g</text><text xml:space="preserve" font-family="Chalkduster,Chalkduster" font-size="36.0" fill="#FEFFFE" transform="matrix(1.00, 0.00, -0.00, -1.00, 312.0, 515.7)"> </text><text xml:space="preserve" font-family="Chalkduster,Chalkduster" font-size="36.0" fill="#FEFFFE" transform="matrix(1.00, 0.00, -0.00, -1.00, 329.9, 515.7)">r</text><text xml:space="preserve" font-family="Chalkduster,Chalkduster" font-size="36.0" fill="#FEFFFE" transform="matrix(1.00, 0.00, -0.00, -1.00, 348.4, 515.7)">o</text><text xml:space="preserve" font-family="Chalkduster,Chalkduster" font-size="36.0" fill="#FEFFFE" transform="matrix(1.00, 0.00, -0.00, -1.00, 375.4, 515.7)">u</text><text xml:space="preserve" font-family="Chalkduster,Chalkduster" font-size="36.0" fill="#FEFFFE" transform="matrix(1.00, 0.00, -0.00, -1.00, 399.7, 515.7)">t</text><text xml:space="preserve" font-family="Chalkduster,Chalkduster" font-size="36.0" fill="#FEFFFE" transform="matrix(1.00, 0.00, -0.00, -1.00, 415.8, 515.7)">e</text><text xml:space="preserve" font-family="Chalkduster,Chalkduster" font-size="36.0" fill="#FEFFFE" transform="matrix(1.00, 0.00, -0.00, -1.00, 438.1, 515.7)"> </text><text xml:space="preserve" font-family="Chalkduster,Chalkduster" font-size="36.0" fill="#FEFFFE" transform="matrix(1.00, 0.00, -0.00, -1.00, 456.0, 515.7)">l</text><text xml:space="preserve" font-family="Chalkduster,Chalkduster" font-size="36.0" fill="#FEFFFE" transform="matrix(1.00, 0.00, -0.00, -1.00, 471.5, 515.7)">o</text><text xml:space="preserve" font-family="Chalkduster,Chalkduster" font-size="36.0" fill="#FEFFFE" transform="matrix(1.00, 0.00, -0.00, -1.00, 497.9, 515.7)">g</text><text xml:space="preserve" font-family="Chalkduster,Chalkduster" font-size="36.0" fill="#FEFFFE" transform="matrix(1.00, 0.00, -0.00, -1.00, 523.7, 515.7)">i</text><text xml:space="preserve" font-family="Chalkduster,Chalkduster" font-size="36.0" fill="#FEFFFE" transform="matrix(1.00, 0.00, -0.00, -1.00, 538.0, 515.7)">n</text><image xlink:href="../../29B1682B-BD1A-4401-892F-63DE0DAFFB13/assets/B7C60622ED4C513915C47C69166D9C58.png" width="1280.00" height="486.00" transform="matrix(0.73, 0.00, -0.00, -0.73, 46.0, 443.0)"></image></g></svg>