<?xml version="1.0" encoding="UTF-8" standalone="no"?><svg xmlns="http://www.w3.org/2000/svg" xmlns:xlink="http://www.w3.org/1999/xlink" clip-rule="evenodd" stroke-miterlimit="10" viewBox="0 0 1024 768"><desc>SVG generated by Keynote</desc><defs></defs><g transform="matrix(1.00, 0.00, -0.00, -1.00, 0.0, 768.0)"><g><clipPath id="clip0x7fe863be1c80"><path d="M 0.0 768.0 L 1024.0 768.0 L 1024.0 0.0 L 0.0 0.0 Z M 0.0 768.0 "></path></clipPath><g clip-path="url(#clip0x7fe863be1c80)"><image xlink:href="../../2454F38C-308E-4D93-86A7-ACF877EF01F7/assets/EC11ABC5F29D162147B74F3E30388275.jpeg" width="2048.00" height="1536.00" transform="matrix(0.50, 0.00, -0.00, -0.50, 0.0, 768.0)"></image></g></g><text xml:space="preserve" font-family="Chalkduster,Chalkduster" font-size="72.0" fill="#FEFFFE" transform="matrix(1.00, 0.00, -0.00, -1.00, 89.2, 627.3)">r</text><text xml:space="preserve" font-family="Chalkduster,Chalkduster" font-size="72.0" fill="#FEFFFE" transform="matrix(1.00, 0.00, -0.00, -1.00, 126.1, 627.3)">o</text><text xml:space="preserve" font-family="Chalkduster,Chalkduster" font-size="72.0" fill="#FEFFFE" transform="matrix(1.00, 0.00, -0.00, -1.00, 180.1, 627.3)">u</text><text xml:space="preserve" font-family="Chalkduster,Chalkduster" font-size="72.0" fill="#FEFFFE" transform="matrix(1.00, 0.00, -0.00, -1.00, 228.9, 627.3)">t</text><text xml:space="preserve" font-family="Chalkduster,Chalkduster" font-size="72.0" fill="#FEFFFE" transform="matrix(1.00, 0.00, -0.00, -1.00, 261.1, 627.3)">e</text><text xml:space="preserve" font-family="Chalkduster,Chalkduster" font-size="72.0" fill="#FEFFFE" transform="matrix(1.00, 0.00, -0.00, -1.00, 307.4, 627.3)">s</text><text xml:space="preserve" font-family="Chalkduster,Chalkduster" font-size="72.0" fill="#FEFFFE" transform="matrix(1.00, 0.00, -0.00, -1.00, 343.7, 627.3)">/</text><text xml:space="preserve" font-family="Chalkduster,Chalkduster" font-size="72.0" fill="#FEFFFE" transform="matrix(1.00, 0.00, -0.00, -1.00, 382.6, 627.3)">a</text><text xml:space="preserve" font-family="Chalkduster,Chalkduster" font-size="72.0" fill="#FEFFFE" transform="matrix(1.00, 0.00, -0.00, -1.00, 432.3, 627.3)">p</text><text xml:space="preserve" font-family="Chalkduster,Chalkduster" font-size="72.0" fill="#FEFFFE" transform="matrix(1.00, 0.00, -0.00, -1.00, 476.7, 627.3)">p</text><text xml:space="preserve" font-family="Chalkduster,Chalkduster" font-size="72.0" fill="#FEFFFE" transform="matrix(1.00, 0.00, -0.00, -1.00, 521.2, 627.3)">l</text><text xml:space="preserve" font-family="Chalkduster,Chalkduster" font-size="72.0" fill="#FEFFFE" transform="matrix(1.00, 0.00, -0.00, -1.00, 555.8, 627.3)">i</text><text xml:space="preserve" font-family="Chalkduster,Chalkduster" font-size="72.0" fill="#FEFFFE" transform="matrix(1.00, 0.00, -0.00, -1.00, 584.9, 627.3)">c</text><text xml:space="preserve" font-family="Chalkduster,Chalkduster" font-size="72.0" fill="#FEFFFE" transform="matrix(1.00, 0.00, -0.00, -1.00, 627.5, 627.3)">a</text><text xml:space="preserve" font-family="Chalkduster,Chalkduster" font-size="72.0" fill="#FEFFFE" transform="matrix(1.00, 0.00, -0.00, -1.00, 672.1, 627.3)">t</text><text xml:space="preserve" font-family="Chalkduster,Chalkduster" font-size="72.0" fill="#FEFFFE" transform="matrix(1.00, 0.00, -0.00, -1.00, 705.4, 627.3)">i</text><text xml:space="preserve" font-family="Chalkduster,Chalkduster" font-size="72.0" fill="#FEFFFE" transform="matrix(1.00, 0.00, -0.00, -1.00, 733.9, 627.3)">o</text><text xml:space="preserve" font-family="Chalkduster,Chalkduster" font-size="72.0" fill="#FEFFFE" transform="matrix(1.00, 0.00, -0.00, -1.00, 787.4, 627.3)">n</text><text xml:space="preserve" font-family="Chalkduster,Chalkduster" font-size="72.0" fill="#FEFFFE" transform="matrix(1.00, 0.00, -0.00, -1.00, 840.2, 627.3)">.</text><text xml:space="preserve" font-family="Chalkduster,Chalkduster" font-size="72.0" fill="#FEFFFE" transform="matrix(1.00, 0.00, -0.00, -1.00, 864.7, 627.3)">j</text><text xml:space="preserve" font-family="Chalkduster,Chalkduster" font-size="72.0" fill="#FEFFFE" transform="matrix(1.00, 0.00, -0.00, -1.00, 898.3, 627.3)">s</text><image xlink:href="../../2454F38C-308E-4D93-86A7-ACF877EF01F7/assets/4DEEB86E8592901A27491E22B30EA716.png" width="78.00" height="72.00" transform="matrix(0.27, 0.00, -0.00, -0.27, 104.0, 518.0)"></image><text xml:space="preserve" font-family="Chalkduster,Chalkduster" font-size="36.0" fill="#FEFFFE" transform="matrix(1.00, 0.00, -0.00, -1.00, 149.0, 498.7)">e</text><text xml:space="preserve" font-family="Chalkduster,Chalkduster" font-size="36.0" fill="#FEFFFE" transform="matrix(1.00, 0.00, -0.00, -1.00, 171.3, 498.7)">m</text><text xml:space="preserve" font-family="Chalkduster,Chalkduster" font-size="36.0" fill="#FEFFFE" transform="matrix(1.00, 0.00, -0.00, -1.00, 207.7, 498.7)">b</text><text xml:space="preserve" font-family="Chalkduster,Chalkduster" font-size="36.0" fill="#FEFFFE" transform="matrix(1.00, 0.00, -0.00, -1.00, 228.7, 498.7)">e</text><text xml:space="preserve" font-family="Chalkduster,Chalkduster" font-size="36.0" fill="#FEFFFE" transform="matrix(1.00, 0.00, -0.00, -1.00, 250.6, 498.7)">r</text><text xml:space="preserve" font-family="Chalkduster,Chalkduster" font-size="36.0" fill="#FEFFFE" transform="matrix(1.00, 0.00, -0.00, -1.00, 269.6, 498.7)"> </text><text xml:space="preserve" font-family="Chalkduster,Chalkduster" font-size="36.0" fill="#FEFFFE" transform="matrix(1.00, 0.00, -0.00, -1.00, 287.5, 498.7)">g</text><text xml:space="preserve" font-family="Chalkduster,Chalkduster" font-size="36.0" fill="#FEFFFE" transform="matrix(1.00, 0.00, -0.00, -1.00, 312.0, 498.7)"> </text><text xml:space="preserve" font-family="Chalkduster,Chalkduster" font-size="36.0" fill="#FEFFFE" transform="matrix(1.00, 0.00, -0.00, -1.00, 329.9, 498.7)">r</text><text xml:space="preserve" font-family="Chalkduster,Chalkduster" font-size="36.0" fill="#FEFFFE" transform="matrix(1.00, 0.00, -0.00, -1.00, 348.4, 498.7)">o</text><text xml:space="preserve" font-family="Chalkduster,Chalkduster" font-size="36.0" fill="#FEFFFE" transform="matrix(1.00, 0.00, -0.00, -1.00, 375.4, 498.7)">u</text><text xml:space="preserve" font-family="Chalkduster,Chalkduster" font-size="36.0" fill="#FEFFFE" transform="matrix(1.00, 0.00, -0.00, -1.00, 399.7, 498.7)">t</text><text xml:space="preserve" font-family="Chalkduster,Chalkduster" font-size="36.0" fill="#FEFFFE" transform="matrix(1.00, 0.00, -0.00, -1.00, 415.8, 498.7)">e</text><text xml:space="preserve" font-family="Chalkduster,Chalkduster" font-size="36.0" fill="#FEFFFE" transform="matrix(1.00, 0.00, -0.00, -1.00, 438.1, 498.7)"> </text><text xml:space="preserve" font-family="Chalkduster,Chalkduster" font-size="36.0" fill="#FEFFFE" transform="matrix(1.00, 0.00, -0.00, -1.00, 456.0, 498.7)">a</text><text xml:space="preserve" font-family="Chalkduster,Chalkduster" font-size="36.0" fill="#FEFFFE" transform="matrix(1.00, 0.00, -0.00, -1.00, 480.9, 498.7)">p</text><text xml:space="preserve" font-family="Chalkduster,Chalkduster" font-size="36.0" fill="#FEFFFE" transform="matrix(1.00, 0.00, -0.00, -1.00, 503.1, 498.7)">p</text><text xml:space="preserve" font-family="Chalkduster,Chalkduster" font-size="36.0" fill="#FEFFFE" transform="matrix(1.00, 0.00, -0.00, -1.00, 525.3, 498.7)">l</text><text xml:space="preserve" font-family="Chalkduster,Chalkduster" font-size="36.0" fill="#FEFFFE" transform="matrix(1.00, 0.00, -0.00, -1.00, 542.6, 498.7)">i</text><text xml:space="preserve" font-family="Chalkduster,Chalkduster" font-size="36.0" fill="#FEFFFE" transform="matrix(1.00, 0.00, -0.00, -1.00, 557.2, 498.7)">c</text><text xml:space="preserve" font-family="Chalkduster,Chalkduster" font-size="36.0" fill="#FEFFFE" transform="matrix(1.00, 0.00, -0.00, -1.00, 578.5, 498.7)">a</text><text xml:space="preserve" font-family="Chalkduster,Chalkduster" font-size="36.0" fill="#FEFFFE" transform="matrix(1.00, 0.00, -0.00, -1.00, 600.8, 498.7)">t</text><text xml:space="preserve" font-family="Chalkduster,Chalkduster" font-size="36.0" fill="#FEFFFE" transform="matrix(1.00, 0.00, -0.00, -1.00, 617.5, 498.7)">i</text><text xml:space="preserve" font-family="Chalkduster,Chalkduster" font-size="36.0" fill="#FEFFFE" transform="matrix(1.00, 0.00, -0.00, -1.00, 631.7, 498.7)">o</text><text xml:space="preserve" font-family="Chalkduster,Chalkduster" font-size="36.0" fill="#FEFFFE" transform="matrix(1.00, 0.00, -0.00, -1.00, 658.5, 498.7)">n</text><text xml:space="preserve" font-family="Chalkduster,Chalkduster" font-size="36.0" fill="#FEFFFE" transform="matrix(1.00, 0.00, -0.00, -1.00, 684.9, 498.7)"> </text><image xlink:href="../../2454F38C-308E-4D93-86A7-ACF877EF01F7/assets/4DEEB86E8592901A27491E22B30EA716.png" width="78.00" height="72.00" transform="matrix(0.27, 0.00, -0.00, -0.27, 104.0, 428.0)"></image><text xml:space="preserve" font-family="Chalkduster,Chalkduster" font-size="36.0" fill="#FEFFFE" transform="matrix(1.00, 0.00, -0.00, -1.00, 149.0, 408.7)">[</text><text xml:space="preserve" font-family="Chalkduster,Chalkduster" font-size="36.0" fill="#FEFFFE" transform="matrix(1.00, 0.00, -0.00, -1.00, 168.6, 408.7)">S</text><text xml:space="preserve" font-family="Chalkduster,Chalkduster" font-size="36.0" fill="#FEFFFE" transform="matrix(1.00, 0.00, -0.00, -1.00, 186.5, 408.7)">k</text><text xml:space="preserve" font-family="Chalkduster,Chalkduster" font-size="36.0" fill="#FEFFFE" transform="matrix(1.00, 0.00, -0.00, -1.00, 214.5, 408.7)">i</text><text xml:space="preserve" font-family="Chalkduster,Chalkduster" font-size="36.0" fill="#FEFFFE" transform="matrix(1.00, 0.00, -0.00, -1.00, 227.9, 408.7)">p</text><text xml:space="preserve" font-family="Chalkduster,Chalkduster" font-size="36.0" fill="#FEFFFE" transform="matrix(1.00, 0.00, -0.00, -1.00, 250.1, 408.7)"> </text><text xml:space="preserve" font-family="Chalkduster,Chalkduster" font-size="36.0" fill="#FEFFFE" transform="matrix(1.00, 0.00, -0.00, -1.00, 268.0, 408.7)">c</text><text xml:space="preserve" font-family="Chalkduster,Chalkduster" font-size="36.0" fill="#FEFFFE" transform="matrix(1.00, 0.00, -0.00, -1.00, 289.9, 408.7)">r</text><text xml:space="preserve" font-family="Chalkduster,Chalkduster" font-size="36.0" fill="#FEFFFE" transform="matrix(1.00, 0.00, -0.00, -1.00, 308.1, 408.7)">e</text><text xml:space="preserve" font-family="Chalkduster,Chalkduster" font-size="36.0" fill="#FEFFFE" transform="matrix(1.00, 0.00, -0.00, -1.00, 330.4, 408.7)">a</text><text xml:space="preserve" font-family="Chalkduster,Chalkduster" font-size="36.0" fill="#FEFFFE" transform="matrix(1.00, 0.00, -0.00, -1.00, 352.8, 408.7)">t</text><text xml:space="preserve" font-family="Chalkduster,Chalkduster" font-size="36.0" fill="#FEFFFE" transform="matrix(1.00, 0.00, -0.00, -1.00, 369.4, 408.7)">i</text><text xml:space="preserve" font-family="Chalkduster,Chalkduster" font-size="36.0" fill="#FEFFFE" transform="matrix(1.00, 0.00, -0.00, -1.00, 383.6, 408.7)">n</text><text xml:space="preserve" font-family="Chalkduster,Chalkduster" font-size="36.0" fill="#FEFFFE" transform="matrix(1.00, 0.00, -0.00, -1.00, 408.9, 408.7)">g</text><text xml:space="preserve" font-family="Chalkduster,Chalkduster" font-size="36.0" fill="#FEFFFE" transform="matrix(1.00, 0.00, -0.00, -1.00, 433.5, 408.7)"> </text><text xml:space="preserve" font-family="Chalkduster,Chalkduster" font-size="36.0" fill="#FEFFFE" transform="matrix(1.00, 0.00, -0.00, -1.00, 451.4, 408.7)">a</text><text xml:space="preserve" font-family="Chalkduster,Chalkduster" font-size="36.0" fill="#FEFFFE" transform="matrix(1.00, 0.00, -0.00, -1.00, 476.2, 408.7)"> </text><text xml:space="preserve" font-family="Chalkduster,Chalkduster" font-size="36.0" fill="#FEFFFE" transform="matrix(1.00, 0.00, -0.00, -1.00, 494.1, 408.7)">n</text><text xml:space="preserve" font-family="Chalkduster,Chalkduster" font-size="36.0" fill="#FEFFFE" transform="matrix(1.00, 0.00, -0.00, -1.00, 521.0, 408.7)">e</text><text xml:space="preserve" font-family="Chalkduster,Chalkduster" font-size="36.0" fill="#FEFFFE" transform="matrix(1.00, 0.00, -0.00, -1.00, 543.3, 408.7)">w</text><text xml:space="preserve" font-family="Chalkduster,Chalkduster" font-size="36.0" fill="#FEFFFE" transform="matrix(1.00, 0.00, -0.00, -1.00, 572.7, 408.7)"> </text><text xml:space="preserve" font-family="Chalkduster,Chalkduster" font-size="36.0" fill="#FEFFFE" transform="matrix(1.00, 0.00, -0.00, -1.00, 590.6, 408.7)">t</text><text xml:space="preserve" font-family="Chalkduster,Chalkduster" font-size="36.0" fill="#FEFFFE" transform="matrix(1.00, 0.00, -0.00, -1.00, 606.7, 408.7)">e</text><text xml:space="preserve" font-family="Chalkduster,Chalkduster" font-size="36.0" fill="#FEFFFE" transform="matrix(1.00, 0.00, -0.00, -1.00, 629.0, 408.7)">m</text><text xml:space="preserve" font-family="Chalkduster,Chalkduster" font-size="36.0" fill="#FEFFFE" transform="matrix(1.00, 0.00, -0.00, -1.00, 665.4, 408.7)">p</text><text xml:space="preserve" font-family="Chalkduster,Chalkduster" font-size="36.0" fill="#FEFFFE" transform="matrix(1.00, 0.00, -0.00, -1.00, 687.7, 408.7)">l</text><text xml:space="preserve" font-family="Chalkduster,Chalkduster" font-size="36.0" fill="#FEFFFE" transform="matrix(1.00, 0.00, -0.00, -1.00, 703.8, 408.7)">a</text><text xml:space="preserve" font-family="Chalkduster,Chalkduster" font-size="36.0" fill="#FEFFFE" transform="matrix(1.00, 0.00, -0.00, -1.00, 726.1, 408.7)">t</text><text xml:space="preserve" font-family="Chalkduster,Chalkduster" font-size="36.0" fill="#FEFFFE" transform="matrix(1.00, 0.00, -0.00, -1.00, 742.2, 408.7)">e</text><text xml:space="preserve" font-family="Chalkduster,Chalkduster" font-size="36.0" fill="#FEFFFE" transform="matrix(1.00, 0.00, -0.00, -1.00, 763.1, 408.7)">]</text><image xlink:href="../../636D30E8-AEEA-477E-9DEE-BCE5CFD8A198/assets/7B9740293A5A96C9B580A7602E982156.png" width="1208.00" height="338.00" transform="matrix(0.81, 0.00, -0.00, -0.80, 25.0, 337.0)"></image></g></svg>