<?xml version="1.0" encoding="UTF-8" standalone="no"?><svg xmlns="http://www.w3.org/2000/svg" xmlns:xlink="http://www.w3.org/1999/xlink" clip-rule="evenodd" stroke-miterlimit="10" viewBox="0 0 1024 768"><desc>SVG generated by Keynote</desc><defs></defs><g transform="matrix(1.00, 0.00, -0.00, -1.00, 0.0, 768.0)"><g><clipPath id="clip0x7fe8640bb210"><path d="M 0.0 768.0 L 1024.0 768.0 L 1024.0 0.0 L 0.0 0.0 Z M 0.0 768.0 "></path></clipPath><g clip-path="url(#clip0x7fe8640bb210)"><image xlink:href="../../2454F38C-308E-4D93-86A7-ACF877EF01F7/assets/EC11ABC5F29D162147B74F3E30388275.jpeg" width="2048.00" height="1536.00" transform="matrix(0.50, 0.00, -0.00, -0.50, 0.0, 768.0)"></image></g></g><text xml:space="preserve" font-family="Chalkduster,Chalkduster" font-size="72.0" fill="#FEFFFE" transform="matrix(1.00, 0.00, -0.00, -1.00, 71.0, 664.3)">C</text><text xml:space="preserve" font-family="Chalkduster,Chalkduster" font-size="72.0" fill="#FEFFFE" transform="matrix(1.00, 0.00, -0.00, -1.00, 129.4, 664.3)">u</text><text xml:space="preserve" font-family="Chalkduster,Chalkduster" font-size="72.0" fill="#FEFFFE" transform="matrix(1.00, 0.00, -0.00, -1.00, 180.9, 664.3)">s</text><text xml:space="preserve" font-family="Chalkduster,Chalkduster" font-size="72.0" fill="#FEFFFE" transform="matrix(1.00, 0.00, -0.00, -1.00, 219.5, 664.3)">t</text><text xml:space="preserve" font-family="Chalkduster,Chalkduster" font-size="72.0" fill="#FEFFFE" transform="matrix(1.00, 0.00, -0.00, -1.00, 249.2, 664.3)">o</text><text xml:space="preserve" font-family="Chalkduster,Chalkduster" font-size="72.0" fill="#FEFFFE" transform="matrix(1.00, 0.00, -0.00, -1.00, 303.2, 664.3)">m</text><text xml:space="preserve" font-family="Chalkduster,Chalkduster" font-size="72.0" fill="#FEFFFE" transform="matrix(1.00, 0.00, -0.00, -1.00, 376.1, 664.3)"> </text><text xml:space="preserve" font-family="Chalkduster,Chalkduster" font-size="72.0" fill="#FEFFFE" transform="matrix(1.00, 0.00, -0.00, -1.00, 407.0, 664.3)">A</text><text xml:space="preserve" font-family="Chalkduster,Chalkduster" font-size="72.0" fill="#FEFFFE" transform="matrix(1.00, 0.00, -0.00, -1.00, 460.3, 664.3)">u</text><text xml:space="preserve" font-family="Chalkduster,Chalkduster" font-size="72.0" fill="#FEFFFE" transform="matrix(1.00, 0.00, -0.00, -1.00, 509.1, 664.3)">t</text><text xml:space="preserve" font-family="Chalkduster,Chalkduster" font-size="72.0" fill="#FEFFFE" transform="matrix(1.00, 0.00, -0.00, -1.00, 543.5, 664.3)">h</text><text xml:space="preserve" font-family="Chalkduster,Chalkduster" font-size="72.0" fill="#FEFFFE" transform="matrix(1.00, 0.00, -0.00, -1.00, 587.9, 664.3)">e</text><text xml:space="preserve" font-family="Chalkduster,Chalkduster" font-size="72.0" fill="#FEFFFE" transform="matrix(1.00, 0.00, -0.00, -1.00, 633.3, 664.3)">n</text><text xml:space="preserve" font-family="Chalkduster,Chalkduster" font-size="72.0" fill="#FEFFFE" transform="matrix(1.00, 0.00, -0.00, -1.00, 683.4, 664.3)">t</text><text xml:space="preserve" font-family="Chalkduster,Chalkduster" font-size="72.0" fill="#FEFFFE" transform="matrix(1.00, 0.00, -0.00, -1.00, 716.7, 664.3)">i</text><text xml:space="preserve" font-family="Chalkduster,Chalkduster" font-size="72.0" fill="#FEFFFE" transform="matrix(1.00, 0.00, -0.00, -1.00, 745.9, 664.3)">c</text><text xml:space="preserve" font-family="Chalkduster,Chalkduster" font-size="72.0" fill="#FEFFFE" transform="matrix(1.00, 0.00, -0.00, -1.00, 788.4, 664.3)">a</text><text xml:space="preserve" font-family="Chalkduster,Chalkduster" font-size="72.0" fill="#FEFFFE" transform="matrix(1.00, 0.00, -0.00, -1.00, 833.1, 664.3)">t</text><text xml:space="preserve" font-family="Chalkduster,Chalkduster" font-size="72.0" fill="#FEFFFE" transform="matrix(1.00, 0.00, -0.00, -1.00, 862.8, 664.3)">o</text><text xml:space="preserve" font-family="Chalkduster,Chalkduster" font-size="72.0" fill="#FEFFFE" transform="matrix(1.00, 0.00, -0.00, -1.00, 915.2, 664.3)">r</text><image xlink:href="../../2454F38C-308E-4D93-86A7-ACF877EF01F7/assets/4DEEB86E8592901A27491E22B30EA716.png" width="78.00" height="72.00" transform="matrix(0.22, 0.00, -0.00, -0.22, 26.0, 620.4)"></image><text xml:space="preserve" font-family="Chalkduster,Chalkduster" font-size="28.8" fill="#FEFFFE" transform="matrix(1.00, 0.00, -0.00, -1.00, 62.0, 605.5)">e</text><text xml:space="preserve" font-family="Chalkduster,Chalkduster" font-size="28.8" fill="#FEFFFE" transform="matrix(1.00, 0.00, -0.00, -1.00, 79.8, 605.5)">m</text><text xml:space="preserve" font-family="Chalkduster,Chalkduster" font-size="28.8" fill="#FEFFFE" transform="matrix(1.00, 0.00, -0.00, -1.00, 109.0, 605.5)">b</text><text xml:space="preserve" font-family="Chalkduster,Chalkduster" font-size="28.8" fill="#FEFFFE" transform="matrix(1.00, 0.00, -0.00, -1.00, 125.7, 605.5)">e</text><text xml:space="preserve" font-family="Chalkduster,Chalkduster" font-size="28.8" fill="#FEFFFE" transform="matrix(1.00, 0.00, -0.00, -1.00, 143.3, 605.5)">r</text><text xml:space="preserve" font-family="Chalkduster,Chalkduster" font-size="28.8" fill="#FEFFFE" transform="matrix(1.00, 0.00, -0.00, -1.00, 158.5, 605.5)"> </text><text xml:space="preserve" font-family="Chalkduster,Chalkduster" font-size="28.8" fill="#FEFFFE" transform="matrix(1.00, 0.00, -0.00, -1.00, 172.8, 605.5)">g</text><text xml:space="preserve" font-family="Chalkduster,Chalkduster" font-size="28.8" fill="#FEFFFE" transform="matrix(1.00, 0.00, -0.00, -1.00, 192.4, 605.5)"> </text><text xml:space="preserve" font-family="Chalkduster,Chalkduster" font-size="28.8" fill="#FEFFFE" transform="matrix(1.00, 0.00, -0.00, -1.00, 206.7, 605.5)">a</text><text xml:space="preserve" font-family="Chalkduster,Chalkduster" font-size="28.8" fill="#FEFFFE" transform="matrix(1.00, 0.00, -0.00, -1.00, 226.6, 605.5)">u</text><text xml:space="preserve" font-family="Chalkduster,Chalkduster" font-size="28.8" fill="#FEFFFE" transform="matrix(1.00, 0.00, -0.00, -1.00, 246.1, 605.5)">t</text><text xml:space="preserve" font-family="Chalkduster,Chalkduster" font-size="28.8" fill="#FEFFFE" transform="matrix(1.00, 0.00, -0.00, -1.00, 259.8, 605.5)">h</text><text xml:space="preserve" font-family="Chalkduster,Chalkduster" font-size="28.8" fill="#FEFFFE" transform="matrix(1.00, 0.00, -0.00, -1.00, 277.6, 605.5)">e</text><text xml:space="preserve" font-family="Chalkduster,Chalkduster" font-size="28.8" fill="#FEFFFE" transform="matrix(1.00, 0.00, -0.00, -1.00, 295.8, 605.5)">n</text><text xml:space="preserve" font-family="Chalkduster,Chalkduster" font-size="28.8" fill="#FEFFFE" transform="matrix(1.00, 0.00, -0.00, -1.00, 315.8, 605.5)">t</text><text xml:space="preserve" font-family="Chalkduster,Chalkduster" font-size="28.8" fill="#FEFFFE" transform="matrix(1.00, 0.00, -0.00, -1.00, 329.1, 605.5)">i</text><text xml:space="preserve" font-family="Chalkduster,Chalkduster" font-size="28.8" fill="#FEFFFE" transform="matrix(1.00, 0.00, -0.00, -1.00, 340.8, 605.5)">c</text><text xml:space="preserve" font-family="Chalkduster,Chalkduster" font-size="28.8" fill="#FEFFFE" transform="matrix(1.00, 0.00, -0.00, -1.00, 357.8, 605.5)">a</text><text xml:space="preserve" font-family="Chalkduster,Chalkduster" font-size="28.8" fill="#FEFFFE" transform="matrix(1.00, 0.00, -0.00, -1.00, 375.7, 605.5)">t</text><text xml:space="preserve" font-family="Chalkduster,Chalkduster" font-size="28.8" fill="#FEFFFE" transform="matrix(1.00, 0.00, -0.00, -1.00, 387.6, 605.5)">o</text><text xml:space="preserve" font-family="Chalkduster,Chalkduster" font-size="28.8" fill="#FEFFFE" transform="matrix(1.00, 0.00, -0.00, -1.00, 408.5, 605.5)">r</text><text xml:space="preserve" font-family="Chalkduster,Chalkduster" font-size="28.8" fill="#FEFFFE" transform="matrix(1.00, 0.00, -0.00, -1.00, 423.7, 605.5)"> </text><text xml:space="preserve" font-family="Chalkduster,Chalkduster" font-size="28.8" fill="#FEFFFE" transform="matrix(1.00, 0.00, -0.00, -1.00, 438.0, 605.5)">c</text><text xml:space="preserve" font-family="Chalkduster,Chalkduster" font-size="28.8" fill="#FEFFFE" transform="matrix(1.00, 0.00, -0.00, -1.00, 456.1, 605.5)">u</text><text xml:space="preserve" font-family="Chalkduster,Chalkduster" font-size="28.8" fill="#FEFFFE" transform="matrix(1.00, 0.00, -0.00, -1.00, 476.8, 605.5)">s</text><text xml:space="preserve" font-family="Chalkduster,Chalkduster" font-size="28.8" fill="#FEFFFE" transform="matrix(1.00, 0.00, -0.00, -1.00, 492.2, 605.5)">t</text><text xml:space="preserve" font-family="Chalkduster,Chalkduster" font-size="28.8" fill="#FEFFFE" transform="matrix(1.00, 0.00, -0.00, -1.00, 504.1, 605.5)">o</text><text xml:space="preserve" font-family="Chalkduster,Chalkduster" font-size="28.8" fill="#FEFFFE" transform="matrix(1.00, 0.00, -0.00, -1.00, 525.6, 605.5)">m</text><image xlink:href="../../57B6102B-9B70-45AA-9F6F-278C434AD843/assets/7936D3EC14D5ED440A564B53612289E5.png" width="964.00" height="1400.00" transform="matrix(0.46, 0.00, -0.00, -0.46, 569.0, 649.0)"></image><g><clipPath id="clip0x7fe864234170"><path d="M 52.0 540.0 L 512.0 540.0 L 512.0 374.0 L 52.0 374.0 Z M 51.8 539.8 "></path></clipPath><g clip-path="url(#clip0x7fe864234170)"><image xlink:href="../../57B6102B-9B70-45AA-9F6F-278C434AD843/assets/25C35A53D85E2D77A986370664444748.png" width="800.00" height="289.00" transform="matrix(0.58, 0.00, -0.00, -0.58, 52.0, 540.0)"></image></g></g></g></svg>