<?xml version="1.0" encoding="UTF-8" standalone="no"?><svg xmlns="http://www.w3.org/2000/svg" xmlns:xlink="http://www.w3.org/1999/xlink" clip-rule="evenodd" stroke-miterlimit="10" viewBox="0 0 1024 768"><desc>SVG generated by Keynote</desc><defs></defs><g transform="matrix(1.00, 0.00, -0.00, -1.00, 0.0, 768.0)"><g><clipPath id="clip0x7fe863e4d8a0"><path d="M 0.0 768.0 L 1024.0 768.0 L 1024.0 0.0 L 0.0 0.0 Z M 0.0 768.0 "></path></clipPath><g clip-path="url(#clip0x7fe863e4d8a0)"><image xlink:href="../../2454F38C-308E-4D93-86A7-ACF877EF01F7/assets/EC11ABC5F29D162147B74F3E30388275.jpeg" width="2048.00" height="1536.00" transform="matrix(0.50, 0.00, -0.00, -0.50, 0.0, 768.0)"></image></g></g><text xml:space="preserve" font-family="Chalkduster,Chalkduster" font-size="72.0" fill="#FEFFFE" transform="matrix(1.00, 0.00, -0.00, -1.00, 273.3, 627.3)">s</text><text xml:space="preserve" font-family="Chalkduster,Chalkduster" font-size="72.0" fill="#FEFFFE" transform="matrix(1.00, 0.00, -0.00, -1.00, 309.7, 627.3)">i</text><text xml:space="preserve" font-family="Chalkduster,Chalkduster" font-size="72.0" fill="#FEFFFE" transform="matrix(1.00, 0.00, -0.00, -1.00, 338.1, 627.3)">m</text><text xml:space="preserve" font-family="Chalkduster,Chalkduster" font-size="72.0" fill="#FEFFFE" transform="matrix(1.00, 0.00, -0.00, -1.00, 411.0, 627.3)">p</text><text xml:space="preserve" font-family="Chalkduster,Chalkduster" font-size="72.0" fill="#FEFFFE" transform="matrix(1.00, 0.00, -0.00, -1.00, 455.5, 627.3)">l</text><text xml:space="preserve" font-family="Chalkduster,Chalkduster" font-size="72.0" fill="#FEFFFE" transform="matrix(1.00, 0.00, -0.00, -1.00, 485.3, 627.3)">e</text><text xml:space="preserve" font-family="Chalkduster,Chalkduster" font-size="72.0" fill="#FEFFFE" transform="matrix(1.00, 0.00, -0.00, -1.00, 529.9, 627.3)">-</text><text xml:space="preserve" font-family="Chalkduster,Chalkduster" font-size="72.0" fill="#FEFFFE" transform="matrix(1.00, 0.00, -0.00, -1.00, 573.4, 627.3)">a</text><text xml:space="preserve" font-family="Chalkduster,Chalkduster" font-size="72.0" fill="#FEFFFE" transform="matrix(1.00, 0.00, -0.00, -1.00, 623.1, 627.3)">u</text><text xml:space="preserve" font-family="Chalkduster,Chalkduster" font-size="72.0" fill="#FEFFFE" transform="matrix(1.00, 0.00, -0.00, -1.00, 671.8, 627.3)">t</text><text xml:space="preserve" font-family="Chalkduster,Chalkduster" font-size="72.0" fill="#FEFFFE" transform="matrix(1.00, 0.00, -0.00, -1.00, 706.2, 627.3)">h</text><image xlink:href="../../2454F38C-308E-4D93-86A7-ACF877EF01F7/assets/4DEEB86E8592901A27491E22B30EA716.png" width="78.00" height="72.00" transform="matrix(0.23, 0.00, -0.00, -0.23, 104.0, 520.4)"></image><text xml:space="preserve" font-family="Chalkduster,Chalkduster" font-size="31.0" fill="#FEFFFE" transform="matrix(1.00, 0.00, -0.00, -1.00, 142.7, 504.2)">e</text><text xml:space="preserve" font-family="Chalkduster,Chalkduster" font-size="31.0" fill="#FEFFFE" transform="matrix(1.00, 0.00, -0.00, -1.00, 161.9, 504.2)">m</text><text xml:space="preserve" font-family="Chalkduster,Chalkduster" font-size="31.0" fill="#FEFFFE" transform="matrix(1.00, 0.00, -0.00, -1.00, 193.2, 504.2)">b</text><text xml:space="preserve" font-family="Chalkduster,Chalkduster" font-size="31.0" fill="#FEFFFE" transform="matrix(1.00, 0.00, -0.00, -1.00, 211.2, 504.2)">e</text><text xml:space="preserve" font-family="Chalkduster,Chalkduster" font-size="31.0" fill="#FEFFFE" transform="matrix(1.00, 0.00, -0.00, -1.00, 230.1, 504.2)">r</text><text xml:space="preserve" font-family="Chalkduster,Chalkduster" font-size="31.0" fill="#FEFFFE" transform="matrix(1.00, 0.00, -0.00, -1.00, 247.6, 504.2)">-</text><text xml:space="preserve" font-family="Chalkduster,Chalkduster" font-size="31.0" fill="#FEFFFE" transform="matrix(1.00, 0.00, -0.00, -1.00, 266.3, 504.2)">s</text><text xml:space="preserve" font-family="Chalkduster,Chalkduster" font-size="31.0" fill="#FEFFFE" transform="matrix(1.00, 0.00, -0.00, -1.00, 281.9, 504.2)">i</text><text xml:space="preserve" font-family="Chalkduster,Chalkduster" font-size="31.0" fill="#FEFFFE" transform="matrix(1.00, 0.00, -0.00, -1.00, 294.1, 504.2)">m</text><text xml:space="preserve" font-family="Chalkduster,Chalkduster" font-size="31.0" fill="#FEFFFE" transform="matrix(1.00, 0.00, -0.00, -1.00, 325.5, 504.2)">p</text><text xml:space="preserve" font-family="Chalkduster,Chalkduster" font-size="31.0" fill="#FEFFFE" transform="matrix(1.00, 0.00, -0.00, -1.00, 344.6, 504.2)">l</text><text xml:space="preserve" font-family="Chalkduster,Chalkduster" font-size="31.0" fill="#FEFFFE" transform="matrix(1.00, 0.00, -0.00, -1.00, 357.4, 504.2)">e</text><text xml:space="preserve" font-family="Chalkduster,Chalkduster" font-size="31.0" fill="#FEFFFE" transform="matrix(1.00, 0.00, -0.00, -1.00, 376.6, 504.2)">-</text><text xml:space="preserve" font-family="Chalkduster,Chalkduster" font-size="31.0" fill="#FEFFFE" transform="matrix(1.00, 0.00, -0.00, -1.00, 395.3, 504.2)">a</text><text xml:space="preserve" font-family="Chalkduster,Chalkduster" font-size="31.0" fill="#FEFFFE" transform="matrix(1.00, 0.00, -0.00, -1.00, 416.7, 504.2)">u</text><text xml:space="preserve" font-family="Chalkduster,Chalkduster" font-size="31.0" fill="#FEFFFE" transform="matrix(1.00, 0.00, -0.00, -1.00, 437.6, 504.2)">t</text><text xml:space="preserve" font-family="Chalkduster,Chalkduster" font-size="31.0" fill="#FEFFFE" transform="matrix(1.00, 0.00, -0.00, -1.00, 452.4, 504.2)">h</text><text xml:space="preserve" font-family="Chalkduster,Chalkduster" font-size="31.0" fill="#FEFFFE" transform="matrix(1.00, 0.00, -0.00, -1.00, 471.5, 504.2)"> </text><image xlink:href="../../2454F38C-308E-4D93-86A7-ACF877EF01F7/assets/4DEEB86E8592901A27491E22B30EA716.png" width="78.00" height="72.00" transform="matrix(0.23, 0.00, -0.00, -0.23, 104.0, 442.4)"></image><text xml:space="preserve" font-family="Chalkduster,Chalkduster" font-size="31.0" fill="#FEFFFE" transform="matrix(1.00, 0.00, -0.00, -1.00, 142.7, 426.2)">e</text><text xml:space="preserve" font-family="Chalkduster,Chalkduster" font-size="31.0" fill="#FEFFFE" transform="matrix(1.00, 0.00, -0.00, -1.00, 161.9, 426.2)">m</text><text xml:space="preserve" font-family="Chalkduster,Chalkduster" font-size="31.0" fill="#FEFFFE" transform="matrix(1.00, 0.00, -0.00, -1.00, 193.2, 426.2)">b</text><text xml:space="preserve" font-family="Chalkduster,Chalkduster" font-size="31.0" fill="#FEFFFE" transform="matrix(1.00, 0.00, -0.00, -1.00, 211.2, 426.2)">e</text><text xml:space="preserve" font-family="Chalkduster,Chalkduster" font-size="31.0" fill="#FEFFFE" transform="matrix(1.00, 0.00, -0.00, -1.00, 230.1, 426.2)">r</text><text xml:space="preserve" font-family="Chalkduster,Chalkduster" font-size="31.0" fill="#FEFFFE" transform="matrix(1.00, 0.00, -0.00, -1.00, 247.6, 426.2)">-</text><text xml:space="preserve" font-family="Chalkduster,Chalkduster" font-size="31.0" fill="#FEFFFE" transform="matrix(1.00, 0.00, -0.00, -1.00, 266.3, 426.2)">c</text><text xml:space="preserve" font-family="Chalkduster,Chalkduster" font-size="31.0" fill="#FEFFFE" transform="matrix(1.00, 0.00, -0.00, -1.00, 285.8, 426.2)">l</text><text xml:space="preserve" font-family="Chalkduster,Chalkduster" font-size="31.0" fill="#FEFFFE" transform="matrix(1.00, 0.00, -0.00, -1.00, 300.6, 426.2)">i</text><text xml:space="preserve" font-family="Chalkduster,Chalkduster" font-size="31.0" fill="#FEFFFE" transform="matrix(1.00, 0.00, -0.00, -1.00, 312.9, 426.2)">-</text><text xml:space="preserve" font-family="Chalkduster,Chalkduster" font-size="31.0" fill="#FEFFFE" transform="matrix(1.00, 0.00, -0.00, -1.00, 331.6, 426.2)">s</text><text xml:space="preserve" font-family="Chalkduster,Chalkduster" font-size="31.0" fill="#FEFFFE" transform="matrix(1.00, 0.00, -0.00, -1.00, 347.2, 426.2)">i</text><text xml:space="preserve" font-family="Chalkduster,Chalkduster" font-size="31.0" fill="#FEFFFE" transform="matrix(1.00, 0.00, -0.00, -1.00, 359.5, 426.2)">m</text><text xml:space="preserve" font-family="Chalkduster,Chalkduster" font-size="31.0" fill="#FEFFFE" transform="matrix(1.00, 0.00, -0.00, -1.00, 390.8, 426.2)">p</text><text xml:space="preserve" font-family="Chalkduster,Chalkduster" font-size="31.0" fill="#FEFFFE" transform="matrix(1.00, 0.00, -0.00, -1.00, 409.9, 426.2)">l</text><text xml:space="preserve" font-family="Chalkduster,Chalkduster" font-size="31.0" fill="#FEFFFE" transform="matrix(1.00, 0.00, -0.00, -1.00, 422.7, 426.2)">e</text><text xml:space="preserve" font-family="Chalkduster,Chalkduster" font-size="31.0" fill="#FEFFFE" transform="matrix(1.00, 0.00, -0.00, -1.00, 441.9, 426.2)">-</text><text xml:space="preserve" font-family="Chalkduster,Chalkduster" font-size="31.0" fill="#FEFFFE" transform="matrix(1.00, 0.00, -0.00, -1.00, 460.6, 426.2)">a</text><text xml:space="preserve" font-family="Chalkduster,Chalkduster" font-size="31.0" fill="#FEFFFE" transform="matrix(1.00, 0.00, -0.00, -1.00, 482.0, 426.2)">u</text><text xml:space="preserve" font-family="Chalkduster,Chalkduster" font-size="31.0" fill="#FEFFFE" transform="matrix(1.00, 0.00, -0.00, -1.00, 503.0, 426.2)">t</text><text xml:space="preserve" font-family="Chalkduster,Chalkduster" font-size="31.0" fill="#FEFFFE" transform="matrix(1.00, 0.00, -0.00, -1.00, 517.7, 426.2)">h</text><text xml:space="preserve" font-family="Chalkduster,Chalkduster" font-size="31.0" fill="#FEFFFE" transform="matrix(1.00, 0.00, -0.00, -1.00, 536.9, 426.2)"> </text><image xlink:href="../../2454F38C-308E-4D93-86A7-ACF877EF01F7/assets/4DEEB86E8592901A27491E22B30EA716.png" width="78.00" height="72.00" transform="matrix(0.23, 0.00, -0.00, -0.23, 104.0, 364.4)"></image><text xml:space="preserve" font-family="Chalkduster,Chalkduster" font-size="31.0" fill="#FEFFFE" transform="matrix(1.00, 0.00, -0.00, -1.00, 142.7, 348.2)">e</text><text xml:space="preserve" font-family="Chalkduster,Chalkduster" font-size="31.0" fill="#FEFFFE" transform="matrix(1.00, 0.00, -0.00, -1.00, 161.9, 348.2)">m</text><text xml:space="preserve" font-family="Chalkduster,Chalkduster" font-size="31.0" fill="#FEFFFE" transform="matrix(1.00, 0.00, -0.00, -1.00, 193.2, 348.2)">b</text><text xml:space="preserve" font-family="Chalkduster,Chalkduster" font-size="31.0" fill="#FEFFFE" transform="matrix(1.00, 0.00, -0.00, -1.00, 211.2, 348.2)">e</text><text xml:space="preserve" font-family="Chalkduster,Chalkduster" font-size="31.0" fill="#FEFFFE" transform="matrix(1.00, 0.00, -0.00, -1.00, 230.1, 348.2)">r</text><text xml:space="preserve" font-family="Chalkduster,Chalkduster" font-size="31.0" fill="#FEFFFE" transform="matrix(1.00, 0.00, -0.00, -1.00, 247.6, 348.2)">-</text><text xml:space="preserve" font-family="Chalkduster,Chalkduster" font-size="31.0" fill="#FEFFFE" transform="matrix(1.00, 0.00, -0.00, -1.00, 266.3, 348.2)">c</text><text xml:space="preserve" font-family="Chalkduster,Chalkduster" font-size="31.0" fill="#FEFFFE" transform="matrix(1.00, 0.00, -0.00, -1.00, 285.8, 348.2)">l</text><text xml:space="preserve" font-family="Chalkduster,Chalkduster" font-size="31.0" fill="#FEFFFE" transform="matrix(1.00, 0.00, -0.00, -1.00, 300.6, 348.2)">i</text><text xml:space="preserve" font-family="Chalkduster,Chalkduster" font-size="31.0" fill="#FEFFFE" transform="matrix(1.00, 0.00, -0.00, -1.00, 312.9, 348.2)">-</text><text xml:space="preserve" font-family="Chalkduster,Chalkduster" font-size="31.0" fill="#FEFFFE" transform="matrix(1.00, 0.00, -0.00, -1.00, 331.6, 348.2)">s</text><text xml:space="preserve" font-family="Chalkduster,Chalkduster" font-size="31.0" fill="#FEFFFE" transform="matrix(1.00, 0.00, -0.00, -1.00, 347.2, 348.2)">i</text><text xml:space="preserve" font-family="Chalkduster,Chalkduster" font-size="31.0" fill="#FEFFFE" transform="matrix(1.00, 0.00, -0.00, -1.00, 359.5, 348.2)">m</text><text xml:space="preserve" font-family="Chalkduster,Chalkduster" font-size="31.0" fill="#FEFFFE" transform="matrix(1.00, 0.00, -0.00, -1.00, 390.8, 348.2)">p</text><text xml:space="preserve" font-family="Chalkduster,Chalkduster" font-size="31.0" fill="#FEFFFE" transform="matrix(1.00, 0.00, -0.00, -1.00, 409.9, 348.2)">l</text><text xml:space="preserve" font-family="Chalkduster,Chalkduster" font-size="31.0" fill="#FEFFFE" transform="matrix(1.00, 0.00, -0.00, -1.00, 422.7, 348.2)">e</text><text xml:space="preserve" font-family="Chalkduster,Chalkduster" font-size="31.0" fill="#FEFFFE" transform="matrix(1.00, 0.00, -0.00, -1.00, 441.9, 348.2)">-</text><text xml:space="preserve" font-family="Chalkduster,Chalkduster" font-size="31.0" fill="#FEFFFE" transform="matrix(1.00, 0.00, -0.00, -1.00, 460.6, 348.2)">a</text><text xml:space="preserve" font-family="Chalkduster,Chalkduster" font-size="31.0" fill="#FEFFFE" transform="matrix(1.00, 0.00, -0.00, -1.00, 482.0, 348.2)">u</text><text xml:space="preserve" font-family="Chalkduster,Chalkduster" font-size="31.0" fill="#FEFFFE" transform="matrix(1.00, 0.00, -0.00, -1.00, 503.0, 348.2)">t</text><text xml:space="preserve" font-family="Chalkduster,Chalkduster" font-size="31.0" fill="#FEFFFE" transform="matrix(1.00, 0.00, -0.00, -1.00, 517.7, 348.2)">h</text><text xml:space="preserve" font-family="Chalkduster,Chalkduster" font-size="31.0" fill="#FEFFFE" transform="matrix(1.00, 0.00, -0.00, -1.00, 536.9, 348.2)">-</text><text xml:space="preserve" font-family="Chalkduster,Chalkduster" font-size="31.0" fill="#FEFFFE" transform="matrix(1.00, 0.00, -0.00, -1.00, 555.6, 348.2)">c</text><text xml:space="preserve" font-family="Chalkduster,Chalkduster" font-size="31.0" fill="#FEFFFE" transform="matrix(1.00, 0.00, -0.00, -1.00, 574.1, 348.2)">o</text><text xml:space="preserve" font-family="Chalkduster,Chalkduster" font-size="31.0" fill="#FEFFFE" transform="matrix(1.00, 0.00, -0.00, -1.00, 597.5, 348.2)">o</text><text xml:space="preserve" font-family="Chalkduster,Chalkduster" font-size="31.0" fill="#FEFFFE" transform="matrix(1.00, 0.00, -0.00, -1.00, 619.2, 348.2)">k</text><text xml:space="preserve" font-family="Chalkduster,Chalkduster" font-size="31.0" fill="#FEFFFE" transform="matrix(1.00, 0.00, -0.00, -1.00, 643.2, 348.2)">i</text><text xml:space="preserve" font-family="Chalkduster,Chalkduster" font-size="31.0" fill="#FEFFFE" transform="matrix(1.00, 0.00, -0.00, -1.00, 655.5, 348.2)">e</text><text xml:space="preserve" font-family="Chalkduster,Chalkduster" font-size="31.0" fill="#FEFFFE" transform="matrix(1.00, 0.00, -0.00, -1.00, 674.7, 348.2)">-</text><text xml:space="preserve" font-family="Chalkduster,Chalkduster" font-size="31.0" fill="#FEFFFE" transform="matrix(1.00, 0.00, -0.00, -1.00, 693.4, 348.2)">s</text><text xml:space="preserve" font-family="Chalkduster,Chalkduster" font-size="31.0" fill="#FEFFFE" transform="matrix(1.00, 0.00, -0.00, -1.00, 710.0, 348.2)">t</text><text xml:space="preserve" font-family="Chalkduster,Chalkduster" font-size="31.0" fill="#FEFFFE" transform="matrix(1.00, 0.00, -0.00, -1.00, 722.7, 348.2)">o</text><text xml:space="preserve" font-family="Chalkduster,Chalkduster" font-size="31.0" fill="#FEFFFE" transform="matrix(1.00, 0.00, -0.00, -1.00, 745.3, 348.2)">r</text><text xml:space="preserve" font-family="Chalkduster,Chalkduster" font-size="31.0" fill="#FEFFFE" transform="matrix(1.00, 0.00, -0.00, -1.00, 761.0, 348.2)">e</text><text xml:space="preserve" font-family="Chalkduster,Chalkduster" font-size="31.0" fill="#FEFFFE" transform="matrix(1.00, 0.00, -0.00, -1.00, 780.2, 348.2)"> </text><image xlink:href="../../2454F38C-308E-4D93-86A7-ACF877EF01F7/assets/4DEEB86E8592901A27491E22B30EA716.png" width="78.00" height="72.00" transform="matrix(0.23, 0.00, -0.00, -0.23, 104.0, 286.5)"></image><text xml:space="preserve" font-family="Chalkduster,Chalkduster" font-size="31.0" fill="#FEFFFE" transform="matrix(1.00, 0.00, -0.00, -1.00, 142.7, 270.3)">e</text><text xml:space="preserve" font-family="Chalkduster,Chalkduster" font-size="31.0" fill="#FEFFFE" transform="matrix(1.00, 0.00, -0.00, -1.00, 161.9, 270.3)">m</text><text xml:space="preserve" font-family="Chalkduster,Chalkduster" font-size="31.0" fill="#FEFFFE" transform="matrix(1.00, 0.00, -0.00, -1.00, 193.2, 270.3)">b</text><text xml:space="preserve" font-family="Chalkduster,Chalkduster" font-size="31.0" fill="#FEFFFE" transform="matrix(1.00, 0.00, -0.00, -1.00, 211.2, 270.3)">e</text><text xml:space="preserve" font-family="Chalkduster,Chalkduster" font-size="31.0" fill="#FEFFFE" transform="matrix(1.00, 0.00, -0.00, -1.00, 230.1, 270.3)">r</text><text xml:space="preserve" font-family="Chalkduster,Chalkduster" font-size="31.0" fill="#FEFFFE" transform="matrix(1.00, 0.00, -0.00, -1.00, 247.6, 270.3)">-</text><text xml:space="preserve" font-family="Chalkduster,Chalkduster" font-size="31.0" fill="#FEFFFE" transform="matrix(1.00, 0.00, -0.00, -1.00, 266.3, 270.3)">c</text><text xml:space="preserve" font-family="Chalkduster,Chalkduster" font-size="31.0" fill="#FEFFFE" transform="matrix(1.00, 0.00, -0.00, -1.00, 285.8, 270.3)">l</text><text xml:space="preserve" font-family="Chalkduster,Chalkduster" font-size="31.0" fill="#FEFFFE" transform="matrix(1.00, 0.00, -0.00, -1.00, 300.6, 270.3)">i</text><text xml:space="preserve" font-family="Chalkduster,Chalkduster" font-size="31.0" fill="#FEFFFE" transform="matrix(1.00, 0.00, -0.00, -1.00, 312.9, 270.3)">-</text><text xml:space="preserve" font-family="Chalkduster,Chalkduster" font-size="31.0" fill="#FEFFFE" transform="matrix(1.00, 0.00, -0.00, -1.00, 331.6, 270.3)">s</text><text xml:space="preserve" font-family="Chalkduster,Chalkduster" font-size="31.0" fill="#FEFFFE" transform="matrix(1.00, 0.00, -0.00, -1.00, 347.2, 270.3)">i</text><text xml:space="preserve" font-family="Chalkduster,Chalkduster" font-size="31.0" fill="#FEFFFE" transform="matrix(1.00, 0.00, -0.00, -1.00, 359.5, 270.3)">m</text><text xml:space="preserve" font-family="Chalkduster,Chalkduster" font-size="31.0" fill="#FEFFFE" transform="matrix(1.00, 0.00, -0.00, -1.00, 390.8, 270.3)">p</text><text xml:space="preserve" font-family="Chalkduster,Chalkduster" font-size="31.0" fill="#FEFFFE" transform="matrix(1.00, 0.00, -0.00, -1.00, 409.9, 270.3)">l</text><text xml:space="preserve" font-family="Chalkduster,Chalkduster" font-size="31.0" fill="#FEFFFE" transform="matrix(1.00, 0.00, -0.00, -1.00, 422.7, 270.3)">e</text><text xml:space="preserve" font-family="Chalkduster,Chalkduster" font-size="31.0" fill="#FEFFFE" transform="matrix(1.00, 0.00, -0.00, -1.00, 441.9, 270.3)">-</text><text xml:space="preserve" font-family="Chalkduster,Chalkduster" font-size="31.0" fill="#FEFFFE" transform="matrix(1.00, 0.00, -0.00, -1.00, 460.6, 270.3)">a</text><text xml:space="preserve" font-family="Chalkduster,Chalkduster" font-size="31.0" fill="#FEFFFE" transform="matrix(1.00, 0.00, -0.00, -1.00, 482.0, 270.3)">u</text><text xml:space="preserve" font-family="Chalkduster,Chalkduster" font-size="31.0" fill="#FEFFFE" transform="matrix(1.00, 0.00, -0.00, -1.00, 503.0, 270.3)">t</text><text xml:space="preserve" font-family="Chalkduster,Chalkduster" font-size="31.0" fill="#FEFFFE" transform="matrix(1.00, 0.00, -0.00, -1.00, 517.7, 270.3)">h</text><text xml:space="preserve" font-family="Chalkduster,Chalkduster" font-size="31.0" fill="#FEFFFE" transform="matrix(1.00, 0.00, -0.00, -1.00, 536.9, 270.3)">-</text><text xml:space="preserve" font-family="Chalkduster,Chalkduster" font-size="31.0" fill="#FEFFFE" transform="matrix(1.00, 0.00, -0.00, -1.00, 556.8, 270.3)">d</text><text xml:space="preserve" font-family="Chalkduster,Chalkduster" font-size="31.0" fill="#FEFFFE" transform="matrix(1.00, 0.00, -0.00, -1.00, 580.9, 270.3)">e</text><text xml:space="preserve" font-family="Chalkduster,Chalkduster" font-size="31.0" fill="#FEFFFE" transform="matrix(1.00, 0.00, -0.00, -1.00, 600.0, 270.3)">v</text><text xml:space="preserve" font-family="Chalkduster,Chalkduster" font-size="31.0" fill="#FEFFFE" transform="matrix(1.00, 0.00, -0.00, -1.00, 619.2, 270.3)">i</text><text xml:space="preserve" font-family="Chalkduster,Chalkduster" font-size="31.0" fill="#FEFFFE" transform="matrix(1.00, 0.00, -0.00, -1.00, 631.5, 270.3)">s</text><text xml:space="preserve" font-family="Chalkduster,Chalkduster" font-size="31.0" fill="#FEFFFE" transform="matrix(1.00, 0.00, -0.00, -1.00, 647.1, 270.3)">e</text><text xml:space="preserve" font-family="Chalkduster,Chalkduster" font-size="31.0" fill="#FEFFFE" transform="matrix(1.00, 0.00, -0.00, -1.00, 666.3, 270.3)"> </text><image xlink:href="../../2454F38C-308E-4D93-86A7-ACF877EF01F7/assets/4DEEB86E8592901A27491E22B30EA716.png" width="78.00" height="72.00" transform="matrix(0.23, 0.00, -0.00, -0.23, 104.0, 208.5)"></image><text xml:space="preserve" font-family="Chalkduster,Chalkduster" font-size="31.0" fill="#FEFFFE" transform="matrix(1.00, 0.00, -0.00, -1.00, 142.7, 192.3)">e</text><text xml:space="preserve" font-family="Chalkduster,Chalkduster" font-size="31.0" fill="#FEFFFE" transform="matrix(1.00, 0.00, -0.00, -1.00, 161.9, 192.3)">m</text><text xml:space="preserve" font-family="Chalkduster,Chalkduster" font-size="31.0" fill="#FEFFFE" transform="matrix(1.00, 0.00, -0.00, -1.00, 193.2, 192.3)">b</text><text xml:space="preserve" font-family="Chalkduster,Chalkduster" font-size="31.0" fill="#FEFFFE" transform="matrix(1.00, 0.00, -0.00, -1.00, 211.2, 192.3)">e</text><text xml:space="preserve" font-family="Chalkduster,Chalkduster" font-size="31.0" fill="#FEFFFE" transform="matrix(1.00, 0.00, -0.00, -1.00, 230.1, 192.3)">r</text><text xml:space="preserve" font-family="Chalkduster,Chalkduster" font-size="31.0" fill="#FEFFFE" transform="matrix(1.00, 0.00, -0.00, -1.00, 247.6, 192.3)">-</text><text xml:space="preserve" font-family="Chalkduster,Chalkduster" font-size="31.0" fill="#FEFFFE" transform="matrix(1.00, 0.00, -0.00, -1.00, 266.3, 192.3)">c</text><text xml:space="preserve" font-family="Chalkduster,Chalkduster" font-size="31.0" fill="#FEFFFE" transform="matrix(1.00, 0.00, -0.00, -1.00, 285.8, 192.3)">l</text><text xml:space="preserve" font-family="Chalkduster,Chalkduster" font-size="31.0" fill="#FEFFFE" transform="matrix(1.00, 0.00, -0.00, -1.00, 300.6, 192.3)">i</text><text xml:space="preserve" font-family="Chalkduster,Chalkduster" font-size="31.0" fill="#FEFFFE" transform="matrix(1.00, 0.00, -0.00, -1.00, 312.9, 192.3)">-</text><text xml:space="preserve" font-family="Chalkduster,Chalkduster" font-size="31.0" fill="#FEFFFE" transform="matrix(1.00, 0.00, -0.00, -1.00, 331.6, 192.3)">s</text><text xml:space="preserve" font-family="Chalkduster,Chalkduster" font-size="31.0" fill="#FEFFFE" transform="matrix(1.00, 0.00, -0.00, -1.00, 347.2, 192.3)">i</text><text xml:space="preserve" font-family="Chalkduster,Chalkduster" font-size="31.0" fill="#FEFFFE" transform="matrix(1.00, 0.00, -0.00, -1.00, 359.5, 192.3)">m</text><text xml:space="preserve" font-family="Chalkduster,Chalkduster" font-size="31.0" fill="#FEFFFE" transform="matrix(1.00, 0.00, -0.00, -1.00, 390.8, 192.3)">p</text><text xml:space="preserve" font-family="Chalkduster,Chalkduster" font-size="31.0" fill="#FEFFFE" transform="matrix(1.00, 0.00, -0.00, -1.00, 409.9, 192.3)">l</text><text xml:space="preserve" font-family="Chalkduster,Chalkduster" font-size="31.0" fill="#FEFFFE" transform="matrix(1.00, 0.00, -0.00, -1.00, 422.7, 192.3)">e</text><text xml:space="preserve" font-family="Chalkduster,Chalkduster" font-size="31.0" fill="#FEFFFE" transform="matrix(1.00, 0.00, -0.00, -1.00, 441.9, 192.3)">-</text><text xml:space="preserve" font-family="Chalkduster,Chalkduster" font-size="31.0" fill="#FEFFFE" transform="matrix(1.00, 0.00, -0.00, -1.00, 460.6, 192.3)">a</text><text xml:space="preserve" font-family="Chalkduster,Chalkduster" font-size="31.0" fill="#FEFFFE" transform="matrix(1.00, 0.00, -0.00, -1.00, 482.0, 192.3)">u</text><text xml:space="preserve" font-family="Chalkduster,Chalkduster" font-size="31.0" fill="#FEFFFE" transform="matrix(1.00, 0.00, -0.00, -1.00, 503.0, 192.3)">t</text><text xml:space="preserve" font-family="Chalkduster,Chalkduster" font-size="31.0" fill="#FEFFFE" transform="matrix(1.00, 0.00, -0.00, -1.00, 517.7, 192.3)">h</text><text xml:space="preserve" font-family="Chalkduster,Chalkduster" font-size="31.0" fill="#FEFFFE" transform="matrix(1.00, 0.00, -0.00, -1.00, 536.9, 192.3)">-</text><text xml:space="preserve" font-family="Chalkduster,Chalkduster" font-size="31.0" fill="#FEFFFE" transform="matrix(1.00, 0.00, -0.00, -1.00, 555.6, 192.3)">o</text><text xml:space="preserve" font-family="Chalkduster,Chalkduster" font-size="31.0" fill="#FEFFFE" transform="matrix(1.00, 0.00, -0.00, -1.00, 578.3, 192.3)">a</text><text xml:space="preserve" font-family="Chalkduster,Chalkduster" font-size="31.0" fill="#FEFFFE" transform="matrix(1.00, 0.00, -0.00, -1.00, 599.6, 192.3)">u</text><text xml:space="preserve" font-family="Chalkduster,Chalkduster" font-size="31.0" fill="#FEFFFE" transform="matrix(1.00, 0.00, -0.00, -1.00, 620.6, 192.3)">t</text><text xml:space="preserve" font-family="Chalkduster,Chalkduster" font-size="31.0" fill="#FEFFFE" transform="matrix(1.00, 0.00, -0.00, -1.00, 635.4, 192.3)">h</text><text xml:space="preserve" font-family="Chalkduster,Chalkduster" font-size="31.0" fill="#FEFFFE" transform="matrix(1.00, 0.00, -0.00, -1.00, 654.5, 192.3)">2</text><text xml:space="preserve" font-family="Chalkduster,Chalkduster" font-size="31.0" fill="#FEFFFE" transform="matrix(1.00, 0.00, -0.00, -1.00, 671.9, 192.3)"> </text><image xlink:href="../../2454F38C-308E-4D93-86A7-ACF877EF01F7/assets/4DEEB86E8592901A27491E22B30EA716.png" width="78.00" height="72.00" transform="matrix(0.23, 0.00, -0.00, -0.23, 104.0, 130.6)"></image><text xml:space="preserve" font-family="Chalkduster,Chalkduster" font-size="31.0" fill="#FEFFFE" transform="matrix(1.00, 0.00, -0.00, -1.00, 142.7, 114.4)">e</text><text xml:space="preserve" font-family="Chalkduster,Chalkduster" font-size="31.0" fill="#FEFFFE" transform="matrix(1.00, 0.00, -0.00, -1.00, 161.9, 114.4)">m</text><text xml:space="preserve" font-family="Chalkduster,Chalkduster" font-size="31.0" fill="#FEFFFE" transform="matrix(1.00, 0.00, -0.00, -1.00, 193.2, 114.4)">b</text><text xml:space="preserve" font-family="Chalkduster,Chalkduster" font-size="31.0" fill="#FEFFFE" transform="matrix(1.00, 0.00, -0.00, -1.00, 211.2, 114.4)">e</text><text xml:space="preserve" font-family="Chalkduster,Chalkduster" font-size="31.0" fill="#FEFFFE" transform="matrix(1.00, 0.00, -0.00, -1.00, 230.1, 114.4)">r</text><text xml:space="preserve" font-family="Chalkduster,Chalkduster" font-size="31.0" fill="#FEFFFE" transform="matrix(1.00, 0.00, -0.00, -1.00, 247.6, 114.4)">-</text><text xml:space="preserve" font-family="Chalkduster,Chalkduster" font-size="31.0" fill="#FEFFFE" transform="matrix(1.00, 0.00, -0.00, -1.00, 266.3, 114.4)">c</text><text xml:space="preserve" font-family="Chalkduster,Chalkduster" font-size="31.0" fill="#FEFFFE" transform="matrix(1.00, 0.00, -0.00, -1.00, 285.8, 114.4)">l</text><text xml:space="preserve" font-family="Chalkduster,Chalkduster" font-size="31.0" fill="#FEFFFE" transform="matrix(1.00, 0.00, -0.00, -1.00, 300.6, 114.4)">i</text><text xml:space="preserve" font-family="Chalkduster,Chalkduster" font-size="31.0" fill="#FEFFFE" transform="matrix(1.00, 0.00, -0.00, -1.00, 312.9, 114.4)">-</text><text xml:space="preserve" font-family="Chalkduster,Chalkduster" font-size="31.0" fill="#FEFFFE" transform="matrix(1.00, 0.00, -0.00, -1.00, 331.6, 114.4)">s</text><text xml:space="preserve" font-family="Chalkduster,Chalkduster" font-size="31.0" fill="#FEFFFE" transform="matrix(1.00, 0.00, -0.00, -1.00, 347.2, 114.4)">i</text><text xml:space="preserve" font-family="Chalkduster,Chalkduster" font-size="31.0" fill="#FEFFFE" transform="matrix(1.00, 0.00, -0.00, -1.00, 359.5, 114.4)">m</text><text xml:space="preserve" font-family="Chalkduster,Chalkduster" font-size="31.0" fill="#FEFFFE" transform="matrix(1.00, 0.00, -0.00, -1.00, 390.8, 114.4)">p</text><text xml:space="preserve" font-family="Chalkduster,Chalkduster" font-size="31.0" fill="#FEFFFE" transform="matrix(1.00, 0.00, -0.00, -1.00, 409.9, 114.4)">l</text><text xml:space="preserve" font-family="Chalkduster,Chalkduster" font-size="31.0" fill="#FEFFFE" transform="matrix(1.00, 0.00, -0.00, -1.00, 422.7, 114.4)">e</text><text xml:space="preserve" font-family="Chalkduster,Chalkduster" font-size="31.0" fill="#FEFFFE" transform="matrix(1.00, 0.00, -0.00, -1.00, 441.9, 114.4)">-</text><text xml:space="preserve" font-family="Chalkduster,Chalkduster" font-size="31.0" fill="#FEFFFE" transform="matrix(1.00, 0.00, -0.00, -1.00, 460.6, 114.4)">a</text><text xml:space="preserve" font-family="Chalkduster,Chalkduster" font-size="31.0" fill="#FEFFFE" transform="matrix(1.00, 0.00, -0.00, -1.00, 482.0, 114.4)">u</text><text xml:space="preserve" font-family="Chalkduster,Chalkduster" font-size="31.0" fill="#FEFFFE" transform="matrix(1.00, 0.00, -0.00, -1.00, 503.0, 114.4)">t</text><text xml:space="preserve" font-family="Chalkduster,Chalkduster" font-size="31.0" fill="#FEFFFE" transform="matrix(1.00, 0.00, -0.00, -1.00, 517.7, 114.4)">h</text><text xml:space="preserve" font-family="Chalkduster,Chalkduster" font-size="31.0" fill="#FEFFFE" transform="matrix(1.00, 0.00, -0.00, -1.00, 536.9, 114.4)">-</text><text xml:space="preserve" font-family="Chalkduster,Chalkduster" font-size="31.0" fill="#FEFFFE" transform="matrix(1.00, 0.00, -0.00, -1.00, 555.6, 114.4)">t</text><text xml:space="preserve" font-family="Chalkduster,Chalkduster" font-size="31.0" fill="#FEFFFE" transform="matrix(1.00, 0.00, -0.00, -1.00, 568.4, 114.4)">o</text><text xml:space="preserve" font-family="Chalkduster,Chalkduster" font-size="31.0" fill="#FEFFFE" transform="matrix(1.00, 0.00, -0.00, -1.00, 590.9, 114.4)">r</text><text xml:space="preserve" font-family="Chalkduster,Chalkduster" font-size="31.0" fill="#FEFFFE" transform="matrix(1.00, 0.00, -0.00, -1.00, 608.1, 114.4)">i</text><text xml:space="preserve" font-family="Chalkduster,Chalkduster" font-size="31.0" fill="#FEFFFE" transform="matrix(1.00, 0.00, -0.00, -1.00, 620.3, 114.4)">i</text></g></svg>